<mxfile host="app.diagrams.net" agent="Mozilla/5.0 (Windows NT 10.0; Win64; x64; rv:142.0) Gecko/20100101 Firefox/142.0" version="28.2.0">
  <diagram name="Seite-1" id="6L5VEBHPoelTJ3RMrieI">
    <mxGraphModel dx="1364" dy="827" grid="1" gridSize="10" guides="1" tooltips="1" connect="1" arrows="1" fold="1" page="1" pageScale="1" pageWidth="827" pageHeight="1169" math="0" shadow="0">
      <root>
        <mxCell id="0" />
        <mxCell id="1" parent="0" />
        <mxCell id="xoWAvMx8I4kkgyhgML8U-6" value="AWS Cloud" style="ellipse;shape=cloud;whiteSpace=wrap;html=1;" vertex="1" parent="1">
          <mxGeometry x="110" y="110" width="120" height="80" as="geometry" />
        </mxCell>
        <mxCell id="xoWAvMx8I4kkgyhgML8U-11" style="edgeStyle=orthogonalEdgeStyle;rounded=0;orthogonalLoop=1;jettySize=auto;html=1;entryX=1;entryY=0.5;entryDx=0;entryDy=0;" edge="1" parent="1" target="xoWAvMx8I4kkgyhgML8U-8">
          <mxGeometry relative="1" as="geometry">
            <mxPoint x="320" y="289.5" as="targetPoint" />
            <mxPoint x="470" y="289.5" as="sourcePoint" />
          </mxGeometry>
        </mxCell>
        <mxCell id="xoWAvMx8I4kkgyhgML8U-29" style="edgeStyle=orthogonalEdgeStyle;rounded=0;orthogonalLoop=1;jettySize=auto;html=1;exitX=0;exitY=0.5;exitDx=0;exitDy=0;entryX=1;entryY=0.5;entryDx=0;entryDy=0;" edge="1" parent="1" source="xoWAvMx8I4kkgyhgML8U-7" target="xoWAvMx8I4kkgyhgML8U-25">
          <mxGeometry relative="1" as="geometry">
            <Array as="points">
              <mxPoint x="300" y="290" />
              <mxPoint x="300" y="360" />
            </Array>
          </mxGeometry>
        </mxCell>
        <mxCell id="xoWAvMx8I4kkgyhgML8U-7" value="&lt;div&gt;Prometheus&lt;/div&gt;&lt;div&gt;http://localhost:9090/query&lt;/div&gt;" style="rounded=1;whiteSpace=wrap;html=1;" vertex="1" parent="1">
          <mxGeometry x="470" y="260" width="200" height="60" as="geometry" />
        </mxCell>
        <mxCell id="xoWAvMx8I4kkgyhgML8U-8" value="&lt;div&gt;Exporter #1&lt;/div&gt;&lt;div&gt;S3 Bucket&lt;/div&gt;&lt;div&gt;http://localhost:8080/metrics&lt;/div&gt;" style="rounded=1;whiteSpace=wrap;html=1;" vertex="1" parent="1">
          <mxGeometry x="80" y="260" width="180" height="60" as="geometry" />
        </mxCell>
        <mxCell id="xoWAvMx8I4kkgyhgML8U-14" style="edgeStyle=orthogonalEdgeStyle;rounded=0;orthogonalLoop=1;jettySize=auto;html=1;" edge="1" parent="1" source="xoWAvMx8I4kkgyhgML8U-9">
          <mxGeometry relative="1" as="geometry">
            <mxPoint x="510" y="320" as="targetPoint" />
            <Array as="points">
              <mxPoint x="510" y="460" />
              <mxPoint x="510" y="320" />
            </Array>
          </mxGeometry>
        </mxCell>
        <mxCell id="xoWAvMx8I4kkgyhgML8U-9" value="&lt;div&gt;Grafana&lt;/div&gt;http://localhost:3000/" style="rounded=1;whiteSpace=wrap;html=1;" vertex="1" parent="1">
          <mxGeometry x="450" y="430" width="120" height="60" as="geometry" />
        </mxCell>
        <mxCell id="xoWAvMx8I4kkgyhgML8U-16" value="&lt;div&gt;Grafana visualisiert die gesammelten Metriken in Dashboards&lt;/div&gt;" style="text;html=1;whiteSpace=wrap;overflow=hidden;rounded=0;" vertex="1" parent="1">
          <mxGeometry x="370" y="390" width="150" height="50" as="geometry" />
        </mxCell>
        <mxCell id="xoWAvMx8I4kkgyhgML8U-17" value="Prometheus sammelt und speichert die Metriken aus unserem Exporter als Zeitreihendatenbank" style="text;html=1;whiteSpace=wrap;overflow=hidden;rounded=0;" vertex="1" parent="1">
          <mxGeometry x="330" y="215" width="204" height="60" as="geometry" />
        </mxCell>
        <mxCell id="xoWAvMx8I4kkgyhgML8U-18" value="&lt;div&gt;Die Exporter fragen Daten aus der AWS Cloud ab.&lt;/div&gt;" style="text;html=1;whiteSpace=wrap;overflow=hidden;rounded=0;" vertex="1" parent="1">
          <mxGeometry x="180" y="190" width="140" height="100" as="geometry" />
        </mxCell>
        <mxCell id="xoWAvMx8I4kkgyhgML8U-25" value="&lt;div&gt;Exporter #2&lt;/div&gt;&lt;div&gt;Aurora&amp;nbsp;&lt;/div&gt;&lt;div&gt;http://localhost:8081/metrics&lt;/div&gt;" style="rounded=1;whiteSpace=wrap;html=1;" vertex="1" parent="1">
          <mxGeometry x="80" y="330" width="180" height="60" as="geometry" />
        </mxCell>
        <mxCell id="xoWAvMx8I4kkgyhgML8U-30" value="In der prometheus.yaml werden die Exporter registriert" style="text;html=1;whiteSpace=wrap;overflow=hidden;rounded=0;" vertex="1" parent="1">
          <mxGeometry x="570" y="370" width="143" height="60" as="geometry" />
        </mxCell>
        <mxCell id="xoWAvMx8I4kkgyhgML8U-31" value="prometheus.yaml" style="rounded=0;whiteSpace=wrap;html=1;" vertex="1" parent="1">
          <mxGeometry x="550" y="310" width="120" height="60" as="geometry" />
        </mxCell>
        <mxCell id="xoWAvMx8I4kkgyhgML8U-32" style="edgeStyle=orthogonalEdgeStyle;rounded=0;orthogonalLoop=1;jettySize=auto;html=1;exitX=0.5;exitY=0;exitDx=0;exitDy=0;entryX=0.5;entryY=1;entryDx=0;entryDy=0;entryPerimeter=0;" edge="1" parent="1" source="xoWAvMx8I4kkgyhgML8U-8" target="xoWAvMx8I4kkgyhgML8U-6">
          <mxGeometry relative="1" as="geometry" />
        </mxCell>
        <mxCell id="xoWAvMx8I4kkgyhgML8U-34" style="edgeStyle=orthogonalEdgeStyle;rounded=0;orthogonalLoop=1;jettySize=auto;html=1;exitX=0;exitY=0.5;exitDx=0;exitDy=0;entryX=0.25;entryY=0.875;entryDx=0;entryDy=0;entryPerimeter=0;" edge="1" parent="1" source="xoWAvMx8I4kkgyhgML8U-25" target="xoWAvMx8I4kkgyhgML8U-6">
          <mxGeometry relative="1" as="geometry">
            <Array as="points">
              <mxPoint x="70" y="360" />
              <mxPoint x="70" y="250" />
              <mxPoint x="140" y="250" />
            </Array>
          </mxGeometry>
        </mxCell>
        <mxCell id="xoWAvMx8I4kkgyhgML8U-36" style="edgeStyle=orthogonalEdgeStyle;rounded=0;orthogonalLoop=1;jettySize=auto;html=1;exitX=0;exitY=0.5;exitDx=0;exitDy=0;entryX=0.258;entryY=0.863;entryDx=0;entryDy=0;entryPerimeter=0;" edge="1" parent="1" source="xoWAvMx8I4kkgyhgML8U-35" target="xoWAvMx8I4kkgyhgML8U-6">
          <mxGeometry relative="1" as="geometry">
            <mxPoint x="141" y="190" as="targetPoint" />
            <Array as="points">
              <mxPoint x="70" y="430" />
              <mxPoint x="70" y="250" />
              <mxPoint x="140" y="250" />
            </Array>
          </mxGeometry>
        </mxCell>
        <mxCell id="xoWAvMx8I4kkgyhgML8U-35" value="&lt;div&gt;Exporter #3&lt;/div&gt;&lt;div&gt;Electricity Maps&lt;/div&gt;&lt;div&gt;http://localhost:8082/metrics&lt;/div&gt;" style="rounded=1;whiteSpace=wrap;html=1;" vertex="1" parent="1">
          <mxGeometry x="80" y="400" width="180" height="60" as="geometry" />
        </mxCell>
        <mxCell id="xoWAvMx8I4kkgyhgML8U-37" style="edgeStyle=orthogonalEdgeStyle;rounded=0;orthogonalLoop=1;jettySize=auto;html=1;exitX=0;exitY=0.5;exitDx=0;exitDy=0;entryX=1;entryY=0.5;entryDx=0;entryDy=0;" edge="1" parent="1" source="xoWAvMx8I4kkgyhgML8U-7" target="xoWAvMx8I4kkgyhgML8U-35">
          <mxGeometry relative="1" as="geometry">
            <mxPoint x="560" y="350" as="sourcePoint" />
            <mxPoint x="350" y="420" as="targetPoint" />
            <Array as="points">
              <mxPoint x="300" y="290" />
              <mxPoint x="300" y="430" />
            </Array>
          </mxGeometry>
        </mxCell>
      </root>
    </mxGraphModel>
  </diagram>
</mxfile>
